<svg width="757" height="759" viewBox="0 0 757 759" fill="none" xmlns="http://www.w3.org/2000/svg">
<path d="M541.659 11.9311L556.295 57.0883C560.838 70.828 568.526 83.3111 578.742 93.539C588.959 103.767 601.422 111.456 615.134 115.991L660.178 130.664L661.061 130.917C664.535 132.143 667.544 134.42 669.673 137.433C671.801 140.446 672.944 144.048 672.944 147.74C672.944 151.432 671.801 155.034 669.673 158.047C667.544 161.061 664.535 163.337 661.061 164.563L616.017 179.236C602.305 183.771 589.843 191.46 579.626 201.688C569.409 211.916 561.721 224.399 557.178 238.139L542.542 283.254C541.319 286.737 539.048 289.753 536.042 291.887C533.036 294.021 529.444 295.167 525.761 295.167C522.078 295.167 518.485 294.021 515.48 291.887C512.474 289.753 510.203 286.737 508.98 283.254L494.302 238.139C489.794 224.369 482.131 211.849 471.927 201.583C461.717 191.297 449.242 183.557 435.505 178.983L390.461 164.31C386.987 163.084 383.978 160.808 381.849 157.794C379.721 154.781 378.578 151.179 378.578 147.487C378.578 143.795 379.721 140.193 381.849 137.18C383.978 134.167 386.987 131.89 390.461 130.664L435.505 115.991C449.045 111.333 461.323 103.589 471.372 93.3686C481.422 83.1477 488.968 70.7286 493.418 57.0883L508.055 11.9733C509.269 8.47576 511.539 5.44385 514.549 3.2983C517.56 1.15276 521.163 0 524.857 0C528.551 0 532.153 1.15276 535.164 3.2983C538.175 5.44385 540.445 8.4336 541.659 11.9311ZM747.953 346.373L715.736 335.916C705.961 332.64 697.079 327.128 689.794 319.818C682.509 312.508 677.021 303.598 673.762 293.795L663.248 261.582C662.377 259.091 660.756 256.934 658.609 255.407C656.461 253.88 653.894 253.06 651.261 253.06C648.629 253.06 646.062 253.88 643.914 255.407C641.767 256.934 640.146 259.091 639.275 261.582L628.845 293.795C625.646 303.535 620.247 312.404 613.069 319.71C605.89 327.016 597.126 332.562 587.46 335.916L555.285 346.373C552.82 347.265 550.689 348.897 549.183 351.048C547.677 353.198 546.869 355.762 546.869 358.389C546.869 361.017 547.677 363.581 549.183 365.731C550.689 367.881 552.82 369.514 555.285 370.406L587.46 380.905C597.264 384.183 606.171 389.708 613.472 397.042C620.773 404.377 626.267 413.317 629.518 423.153L639.948 455.366C640.819 457.856 642.44 460.014 644.587 461.541C646.734 463.067 649.302 463.887 651.934 463.887C654.567 463.887 657.134 463.067 659.282 461.541C661.429 460.014 663.05 457.856 663.921 455.366L674.393 423.153C677.656 413.345 683.151 404.433 690.443 397.122C697.736 389.811 706.626 384.302 716.409 381.031L748.583 370.575C751.049 369.683 753.18 368.05 754.686 365.9C756.192 363.749 757 361.186 757 358.558C757 355.931 756.192 353.367 754.686 351.217C753.18 349.066 751.049 347.434 748.583 346.542L747.953 346.373ZM629.644 501.366C643.199 506.984 658.312 507.553 672.248 502.968C672.697 507.41 672.921 511.907 672.921 516.461C672.91 547.853 662.148 578.29 642.435 602.68C622.722 627.071 595.253 643.937 564.622 650.457L563.066 658.257C558.207 682.549 546.275 704.853 528.779 722.352C511.283 739.85 489.007 751.758 464.764 756.572C440.521 761.386 415.398 758.89 392.57 749.399C369.741 739.907 350.23 723.847 336.501 703.246C322.773 723.861 303.257 739.934 280.419 749.432C257.581 758.93 232.447 761.427 208.194 756.608C183.941 751.788 161.658 739.868 144.161 722.355C126.664 704.842 114.739 682.521 109.893 658.215L108.337 650.415C80.5717 644.527 55.3249 630.117 36.1036 609.186C16.8822 588.254 4.64081 561.841 1.07981 533.615C-2.48119 505.389 2.81506 476.752 16.2328 451.683C29.6505 426.613 50.5236 406.355 75.9523 393.723C65.2809 383.855 56.7635 371.879 50.9366 358.548C45.1097 345.218 42.0995 330.822 42.0957 316.268V307.92C42.108 281.622 51.2014 256.14 67.8308 235.803C84.4603 215.465 107.6 201.527 133.319 196.355L150.395 192.982L155.652 166.503C159.479 147.238 168.764 129.488 182.396 115.379C196.028 101.269 213.428 91.3989 232.512 86.9495C251.597 82.5001 271.556 83.6607 289.999 90.2921C308.442 96.9234 324.587 108.745 336.501 124.339C340.197 119.507 344.322 115.02 348.824 110.931L347.436 112.829C340.286 122.948 336.501 134.754 336.501 147.445C336.501 160.136 340.286 171.942 347.436 182.061C350.352 186.193 353.716 189.918 357.53 193.235V633.633C357.564 654.253 365.236 674.124 379.057 689.394C392.878 704.664 411.863 714.244 432.33 716.276C452.797 718.309 473.288 712.649 489.829 700.394C506.369 688.139 517.78 670.162 521.849 649.951L526.181 628.363C526.997 624.285 528.997 620.54 531.931 617.599C534.864 614.658 538.6 612.652 542.668 611.835L554.907 609.347C578.877 604.514 600.051 590.568 613.992 570.43C627.932 550.292 633.556 525.527 629.686 501.324M315.472 633.633V186.531C315.504 171.618 309.997 157.228 300.022 146.165C290.047 135.103 276.321 128.16 261.518 126.691C246.715 125.223 231.898 129.333 219.953 138.221C208.009 147.109 199.794 160.137 196.911 174.767L188.92 214.991C188.101 219.075 186.095 222.824 183.153 225.766C180.212 228.707 176.467 230.709 172.391 231.519L141.562 237.717C125.381 240.978 110.824 249.75 100.36 262.546C89.8956 275.342 84.1697 291.373 84.1535 307.92V316.268C84.1535 333.042 90.8002 349.128 102.631 360.989C114.462 372.85 130.509 379.513 147.24 379.513C152.818 379.513 158.166 381.735 162.11 385.688C166.054 389.642 168.269 395.004 168.269 400.595C168.269 406.186 166.054 411.549 162.11 415.502C158.166 419.456 152.818 421.677 147.24 421.677H136.642C113.228 421.745 90.6715 430.52 73.3409 446.304C56.0103 462.087 45.1382 483.756 42.8296 507.115C40.5211 530.474 46.9404 553.86 60.8446 572.746C74.7488 591.633 95.1486 604.675 118.094 609.347L130.333 611.835C134.401 612.652 138.137 614.658 141.07 617.599C144.004 620.54 146.004 624.285 146.82 628.363L151.152 649.951C155.221 670.162 166.632 688.139 183.172 700.394C199.713 712.649 220.204 718.309 240.671 716.276C261.138 714.244 280.123 704.664 293.944 689.394C307.765 674.124 315.437 654.253 315.472 633.633Z" fill="#0B8494"/>
</svg>
